<svg xmlns="http://www.w3.org/2000/svg" viewBox="0 0 895.95 360.02"><defs><style>.cls-1{fill:#0e113d;}.cls-2{fill:#f55f49;}.cls-3{fill:#d1d9d0;}</style></defs><g id="Layer_2" data-name="Layer 2"><g id="Layer_1-2" data-name="Layer 1"><rect class="cls-1" x="323.94" width="572" height="360.02"/><rect class="cls-2" width="323.94" height="360.02"/><polygon class="cls-3" points="289.09 329.3 34.85 329.3 34.85 103.23 166.36 44.26 289.09 103.23 289.09 329.3"/><path class="cls-3" d="M362.67,94.32h13.2c0,6,4.88,9.57,10.82,9.57,6.29,0,9.39-2.75,9.39-6.47,0-13.38-31.55-1.77-31.55-26.85,0-9.75,8.07-18.25,21.53-18.25,10.11,0,22,5.49,22,20.73H394.75c0-4.87-3.37-8.5-9-8.5s-8,3.1-8,6c0,11.61,31.89,1.33,31.89,26.94,0,10.63-8.86,19.14-23.39,19.14C372.6,116.65,362.67,107.88,362.67,94.32Z"/><polygon class="cls-3" points="418.93 53.47 432.14 53.47 432.14 77.84 455.71 77.84 455.71 53.47 468.82 53.47 468.82 115.5 455.71 115.5 455.71 90.24 432.14 90.24 432.14 115.5 418.93 115.5 418.93 53.47"/><polygon class="cls-3" points="481.22 53.47 520.21 53.47 520.21 65.88 494.42 65.88 494.42 77.84 516.67 77.84 516.67 90.15 494.42 90.15 494.42 103.18 521.1 103.18 521.1 115.5 481.22 115.5 481.22 53.47"/><polygon class="cls-3" points="530.84 53.47 544.04 53.47 544.04 103.18 568.59 103.18 568.59 115.5 530.84 115.5 530.84 53.47"/><polygon class="cls-3" points="579.4 65.88 562.83 65.88 562.83 53.47 609.08 53.47 609.08 65.88 592.51 65.88 592.51 115.5 579.4 115.5 579.4 65.88"/><polygon class="cls-3" points="617.5 53.47 656.48 53.47 656.48 65.88 630.7 65.88 630.7 77.84 652.94 77.84 652.94 90.15 630.7 90.15 630.7 103.18 657.37 103.18 657.37 115.5 617.5 115.5 617.5 53.47"/><path class="cls-3" d="M699.54,91c7.18-3.35,11.09-9.82,11.09-18.15,0-11.62-9.13-19.4-22.16-19.4H667.11v62h13.2V93.09h6.3L698,115.5h15.06Zm-10.9-9.91h-8.33V65.79h7.9c5.94,0,8.67,3.35,8.67,7.35C696.88,78.29,693.43,81.12,688.64,81.12Z"/><path class="cls-3" d="M395,158.63c-18.51,0-32.33,13.92-32.33,32.09C362.67,209.07,376.3,223,395,223s32.35-14.11,32.35-32.26C427.35,172.74,413.7,158.63,395,158.63Zm0,51.58c-10.8,0-18.7-8.23-18.7-19.49,0-11.09,7.9-19.32,18.7-19.32,10.63,0,18.7,8.23,18.7,19.32C413.7,202,405.63,210.21,395,210.21Z"/><path class="cls-3" d="M436.2,198.69v-38.9h13.2v38.82c0,7.08,3.81,11.6,11.26,11.6s11.25-4.52,11.25-11.69V159.79h13.2v38.82c0,14.44-8.86,24.36-24.45,24.36C444.88,223,436.2,213.23,436.2,198.69Z"/><path class="cls-3" d="M529.06,197.35c7.18-3.35,11.08-9.81,11.08-18.15,0-11.61-9.12-19.39-22.15-19.39H496.63v62h13.2V199.41h6.29l11.43,22.42h15.06Zm-10.9-9.91h-8.33V172.11h7.9c5.94,0,8.67,3.36,8.67,7.36C526.4,184.62,523,187.44,518.16,187.44Z"/><path class="cls-3" d="M362.67,307h13.2c0,6,4.88,9.57,10.82,9.57,6.29,0,9.39-2.75,9.39-6.47,0-13.38-31.55-1.77-31.55-26.85,0-9.75,8.07-18.25,21.53-18.25,10.11,0,22,5.49,22,20.73H394.75c0-4.87-3.37-8.5-9-8.5s-8,3.1-8,6c0,11.61,31.89,1.33,31.89,26.94,0,10.63-8.86,19.14-23.39,19.14C372.6,329.3,362.67,320.53,362.67,307Z"/><polygon class="cls-3" points="431.52 278.53 414.94 278.53 414.94 266.12 461.2 266.12 461.2 278.53 444.63 278.53 444.63 328.15 431.52 328.15 431.52 278.53"/><path class="cls-3" d="M468.73,305v-38.9h13.2v38.81c0,7.09,3.81,11.61,11.25,11.61s11.26-4.52,11.26-11.7V266.12h13.2v38.81c0,14.44-8.86,24.37-24.46,24.37C477.41,329.3,468.73,319.55,468.73,305Z"/><path class="cls-3" d="M552.2,266.13H527.82v11.33h5.32V316.8h-5.32v11.35H552.2c20.12,0,31.54-11.78,31.54-31C583.74,279.06,572.32,266.13,552.2,266.13Zm0,50.15h-6v-38.2h6c11.42,0,17.89,7.71,17.89,19.06C570.09,309,563.53,316.28,552.2,316.28Z"/><polygon class="cls-3" points="593.49 266.12 632.47 266.12 632.47 278.53 606.69 278.53 606.69 290.49 628.93 290.49 628.93 302.81 606.69 302.81 606.69 315.83 633.36 315.83 633.36 328.15 593.49 328.15 593.49 266.12"/><polygon class="cls-3" points="643.1 266.12 665.61 266.12 679.97 314.86 680.85 314.86 680.85 266.12 693.97 266.12 693.97 328.15 671.28 328.15 657.28 279.41 656.31 279.41 656.31 328.15 643.1 328.15 643.1 266.12"/><polygon class="cls-3" points="718.95 278.53 702.38 278.53 702.38 266.12 748.63 266.12 748.63 278.53 732.07 278.53 732.07 328.15 718.95 328.15 718.95 278.53"/><path class="cls-3" d="M754,307h13.2c0,6,4.87,9.57,10.81,9.57,6.29,0,9.39-2.75,9.39-6.47,0-13.38-31.54-1.77-31.54-26.85,0-9.75,8.06-18.25,21.53-18.25,10.1,0,22,5.49,22,20.73H786c0-4.87-3.37-8.5-9-8.5s-8,3.1-8,6c0,11.61,31.9,1.33,31.9,26.94,0,10.63-8.86,19.14-23.39,19.14C763.87,329.3,754,320.53,754,307Z"/></g></g></svg>